<?xml version="1.0" standalone="no"?><!DOCTYPE svg PUBLIC "-//W3C//DTD SVG 1.1//EN" "http://www.w3.org/Graphics/SVG/1.1/DTD/svg11.dtd"><svg t="1621787320024" class="icon" viewBox="0 0 1024 1024" version="1.1" xmlns="http://www.w3.org/2000/svg" p-id="9714" width="30" height="30" xmlns:xlink="http://www.w3.org/1999/xlink"><defs><style type="text/css"></style></defs><path d="M0 0h1024v1024H0z" fill="#FFFFFF" p-id="9715" data-spm-anchor-id="a313x.7781069.0.i10" class=""></path><path d="M720.128 453.12m-74.112 0a74.112 74.112 0 1 0 148.224 0 74.112 74.112 0 1 0-148.224 0Z" fill="#FED150" p-id="9716" data-spm-anchor-id="a313x.7781069.0.i9" class=""></path><path d="M636.8 578.304m-27.904 0a27.904 27.904 0 1 0 55.808 0 27.904 27.904 0 1 0-55.808 0Z" fill="#FED150" p-id="9717" data-spm-anchor-id="a313x.7781069.0.i11" class=""></path><path d="M700.16 135.424c-72.192 0-139.52 44.416-184.832 100.096a4.224 4.224 0 0 1-6.656 0C463.36 179.84 396.8 135.424 323.84 135.424 190.336 135.424 81.792 247.168 81.792 384c0 82.048 38.4 139.52 70.144 185.728C243.2 704 471.168 871.424 480.896 878.464a52.864 52.864 0 0 0 62.208 0C552.704 871.424 780.8 704 871.936 570.24c31.36-46.208 70.272-103.68 70.272-185.728 0-137.344-108.544-249.088-242.048-249.088z m88.192 416.768c-75.52 88.832-246.4 218.496-253.824 223.488a43.264 43.264 0 0 1-22.016 7.424 44.544 44.544 0 0 1-22.528-7.424c-7.424-5.12-178.432-133.632-258.304-220.928-25.6-28.16-69.888-93.44-69.888-152.832 0-99.712 67.072-180.736 169.344-180.736 78.592 0 140.8 72.448 171.392 121.216a11.648 11.648 0 0 0 20.224 0c30.72-48.768 91.648-121.216 166.4-121.216 102.4 0 169.088 81.024 169.088 180.736-0.64 58.88-43.392 119.168-69.888 150.272z" fill="#ffaa00" p-id="9718" data-spm-anchor-id="a313x.7781069.0.i8" class=""></path></svg>